# xmcd
#
# Track frame offsets:
#  150
#  20172
#  36304
#  53647
#  73122
#  87007
#  106701
#  126666
#  153886
#  181588
#  202595
#  224245
#  247130
#  268939
#  289031
#
# Disc length: 4108 seconds
#
# Revision: 2
# Processed by: cddbd v1.5.1PL0 Copyright (c) Steve Scherf et al.
# Submitted via: Collectorz.com_Music_Collector 6.9
#
DISCID=dd100a0f
DTITLE=Various Artist - Garden Bar Blues
DYEAR=1998
DGENRE=Blues
TTITLE0=The Mighty 45s - Chains
TTITLE1=The Mighty Houserockers - Madison Blues
TTITLE2=No Time For Jive - Lovers Lament
TTITLE3=The Backscratchers - Shake Your Hips
TTITLE4=The Dave Richmond Band - Behave Yourself
TTITLE5=Little Stevie and The Rhythm Kings - I'm Ready
TTITLE6=The Harpbreakers - If You Love Me So Much
TTITLE7=The Mighty 45s - You Gave Me The Blues
TTITLE8=The Backscratchers - Way Back Then
TTITLE9=No Time For Jive - Love Sick
TTITLE10=The Mighty Houserockers - Blue Light
TTITLE11=The Harpbreakers - Cloudy Weather
TTITLE12=Little Stevie and The Rhythm Kings - There Must Be More To Life Than This
TTITLE13=The Dave Richmond Band - Hell Hound On My Trail
TTITLE14=Stalebread Charlie - Built For Comfort
EXTD=
EXTT0=
EXTT1=
EXTT2=
EXTT3=
EXTT4=
EXTT5=
EXTT6=
EXTT7=
EXTT8=
EXTT9=
EXTT10=
EXTT11=
EXTT12=
EXTT13=
EXTT14=
PLAYORDER=
